<svg width="800" height="800" viewBox="0 0 800 800" xmlns="http://www.w3.org/2000/svg" fill="rgba(255,255,255,0.14)">
  <g>
    <circle cx="60" cy="120" r="2"/>
    <circle cx="160" cy="80" r="1.5"/>
    <circle cx="320" cy="150" r="2.2"/>
    <circle cx="500" cy="90" r="1.8"/>
    <circle cx="640" cy="140" r="2.5"/>
    <circle cx="720" cy="60" r="1.2"/>
    <circle cx="200" cy="260" r="1.6"/>
    <circle cx="420" cy="240" r="2"/>
    <circle cx="560" cy="260" r="1.6"/>
    <circle cx="300" cy="360" r="2.1"/>
    <circle cx="480" cy="380" r="1.4"/>
    <circle cx="660" cy="320" r="1.7"/>
    <circle cx="120" cy="420" r="1.3"/>
    <circle cx="240" cy="520" r="1.8"/>
    <circle cx="420" cy="560" r="2"/>
    <circle cx="620" cy="520" r="1.9"/>
    <circle cx="700" cy="460" r="1.5"/>
    <circle cx="320" cy="660" r="1.4"/>
    <circle cx="520" cy="700" r="1.8"/>
    <circle cx="200" cy="700" r="1.2"/>
    <circle cx="620" cy="640" r="1.6"/>
  </g>
</svg>
